# xmcd
# Track frame offsets:
# 183
# 12528
# 25025
# 37115
# 51763
# 65718
# 78440
# 91650
# 104785
# 119098
# 134400
# 146330
# 157905
# 169563
# 182158
# 195688
# 208125
# 220720
# 232993
# 245585
# 258375
# 270203
# 285798
# 295885
# 308745
# 321288
#
# Disc length: 4428 seconds
# Revision: 0
# Processed by: cddbd v1.5.1PL0 Copyright (c) Steve Scherf et al.
# Submitted via: VisiTrax 2.9.7.197 - For more info visit www.synapsa.com
#
DISCID=78114a1a
DTITLE=Various Artist - 26 All-Time Country Classics
DYEAR=1900
DGENRE=
TTITLE0=Wills, Bob - Cotton Eyed Joe
TTITLE1=Arnold, Eddy - I'll Hold You In My Heart
TTITLE2=Tubb, Ernest - Walkin' The Floor Over You
TTITLE3=Dalhart, Vernon - Runaway Train, The
TTITLE4=Carter Family, The - I'm Thinking Tonight Of My Blue Eyes
TTITLE5=Rodgers, Jimmie - Waiting For A Train
TTITLE6=Acuff, Roy - Wabash Cannonball
TTITLE7=Cooley, Spade - Shame On You
TTITLE8=Montana, Patsy - I Want To Be A Cowboy's Sweetheart
TTITLE9=Autry, Gene - Tumbling Tumbleweeds
TTITLE10=Wills, Bob - New San Antonio Rose
TTITLE11=Manners, Zeke - Sioux City Sue
TTITLE12=Monroe, Bill - Orange Blossom Special
TTITLE13=Rice Brothers, The - You Are My Sunshine
TTITLE14=Sons Of The Pioneers, The - Teardrops In My Heart
TTITLE15=Daffan, Ted - Born To Lose
TTITLE16=Williams, Hank - Move It On Over
TTITLE17=Wills, Bob - Time Changes Everything
TTITLE18=Autry, Gene - Be Honest With Me
TTITLE19=Williams, Hank - Honky Tonkin'
TTITLE20=Delmore Brothers, The - Brown's Ferry Blues
TTITLE21=Rodgers, Jimmie - Long Tall Mama Blues
TTITLE22=Wills, Luke - Cain's Stomp
TTITLE23=Williams, Hank - Pan American
TTITLE24=Delmore Brothers, The - Hillbilly boogie
TTITLE25=Rogers, Roy - My Chickashay Girl
EXTD=50
EXTT0=
EXTT1=
EXTT2=
EXTT3=
EXTT4=
EXTT5=
EXTT6=
EXTT7=
EXTT8=
EXTT9=
EXTT10=
EXTT11=
EXTT12=
EXTT13=
EXTT14=
EXTT15=
EXTT16=
EXTT17=
EXTT18=
EXTT19=
EXTT20=
EXTT21=
EXTT22=
EXTT23=
EXTT24=
EXTT25=
PLAYORDER=
